<?xml version="1.0" encoding="iso-8859-1"?>
<!-- Generator: Adobe Illustrator 21.0.0, SVG Export Plug-In . SVG Version: 6.00 Build 0)  -->
<svg xmlns="http://www.w3.org/2000/svg" xmlns:xlink="http://www.w3.org/1999/xlink" version="1.1" id="Capa_1" x="0px" y="0px" viewBox="0 0 512 512" style="enable-background:new 0 0 512 512;" xml:space="preserve" width="512" height="512">
<g>
	<path d="M347.054,437.7c-11.031,15.597-23.548,30.17-37.447,43.628c28.604-7.09,55.53-19.903,79.575-38.042   c30.556-23.051,54.821-54.062,69.999-88.983h-70.935C379.066,383.973,365.25,411.971,347.054,437.7z"/>
	<path d="M271.039,475.551c19.829-16.314,37.101-34.785,51.521-55.174c14.536-20.551,25.951-42.703,34.103-66.074h-85.625V475.551z"/>
	<path d="M123.627,354.302H52.819c15.178,34.921,39.445,65.932,70,88.983c24.298,18.331,51.539,31.22,80.48,38.263   C167.174,446.037,139.39,401.915,123.627,354.302z"/>
	<path d="M241.039,475.344V354.302h-85.627C172.701,400.821,202.695,443.175,241.039,475.344z"/>
	<path d="M271.039,36.266v115.31h83.485c-7.875-20.944-18.417-40.865-31.509-59.489C308.504,71.441,291.078,52.752,271.039,36.266z"/>
	<path d="M164.525,74.834c11.165-15.884,23.869-30.707,37.997-44.383c-28.9,7.143-56.081,20.128-80.32,38.546   c-28.543,21.689-51.521,50.315-66.691,82.577h70.24C134.802,124.385,147.786,98.647,164.525,74.834z"/>
	<path d="M241.039,36.271c-20.037,16.486-37.46,35.172-51.971,55.816c-13.091,18.625-23.634,38.545-31.509,59.489h83.479V36.271z"/>
	<path d="M0,181.575v142.727h512V181.575H0z M178.985,289.938h-23.282l-10.399-34.417l-10.951,34.417H111.07L90.456,225.52h22.362   l11.228,36.626l11.871-36.626h19.97l11.228,37.086l11.871-37.086h20.613L178.985,289.938z M289.962,289.938H266.68L256.28,255.52   l-10.951,34.417h-23.282l-20.614-64.418h22.362l11.228,36.626l11.871-36.626h19.97l11.228,37.086l11.871-37.086h20.613   L289.962,289.938z M377.655,289.938l-10.399-34.417l-10.951,34.417h-23.282l-20.614-64.418h22.362l11.228,36.626l11.871-36.626   h19.97l11.228,37.086l11.871-37.086h20.613l-20.613,64.418H377.655z"/>
	<path d="M347.559,74.834c16.739,23.814,29.724,49.551,38.773,76.741h70.156c-15.17-32.262-38.147-60.888-66.69-82.577   c-24.207-18.394-51.35-31.37-80.208-38.519C323.707,44.147,336.401,58.961,347.559,74.834z"/>
</g>















</svg>
